PathFileType	3	(X/Y/Z)	D:\Jess\Healthy\Labelled\HA18\20250730\SRRun01.trc
DataRate	CameraRate	NumFrames	NumMarkers	Units	OrigDataRate	OrigDataStartFrame	OrigNumFrames
250.0	250.0	4	33	mm	250.0	37188	2501
Frame#	Time	C7			T10			CLAV			LSHO			RSHO			LASIS			RASIS			LPSIS			RPSIS			LILCR			RILCR			LGTR			LTHI			LLTHI			LLEP			LPSH			LLSH			LDSH			LLMAL			LTOE			L5TH			LHEE			RGTR			RTHI			RLTHI			RLEP			RPSH			RLSH			RDSH			RLMAL			RTOE			R5TH			RHEE			
		X1	Y1	Z1	X2	Y2	Z2	X3	Y3	Z3	X4	Y4	Z4	X5	Y5	Z5	X6	Y6	Z6	X7	Y7	Z7	X8	Y8	Z8	X9	Y9	Z9	X10	Y10	Z10	X11	Y11	Z11	X12	Y12	Z12	X13	Y13	Z13	X14	Y14	Z14	X15	Y15	Z15	X16	Y16	Z16	X17	Y17	Z17	X18	Y18	Z18	X19	Y19	Z19	X20	Y20	Z20	X21	Y21	Z21	X22	Y22	Z22	X23	Y23	Z23	X24	Y24	Z24	X25	Y25	Z25	X26	Y26	Z26	X27	Y27	Z27	X28	Y28	Z28	X29	Y29	Z29	X30	Y30	Z30	X31	Y31	Z31	X32	Y32	Z32	X33	Y33	Z33	

2189	148.748	1080.201489685311	1466.892260584565	-301.1441816035587	1008.932331107115	1232.913396800424	-335.631529718405	1185.591160803102	1360.979374827097	-248.9904570649898	1193.000369245329	1427.388627843422	-410.0175380490764	1090.438525143829	1419.818213345658	-138.1956784382491	1169.792524920586	958.372727225515	-385.7031252071153	1148.308419050649	991.6374705069741	-191.2462094482272	975.8092974202212	1046.334048939555	-332.1499205235822	966.9714160354596	1043.385242092086	-288.2394554450457	1145.793803632777	1047.922860216105	-440.0019319774642	1074.536211876258	1084.71488928154	-142.4312810216867	1067.424901493284	889.7276816456022	-474.7279429081474	1125.202926920833	695.4400722437307	-355.064644404527	989.0221195712118	631.45243173063	-414.0368118391809	937.6175029028855	521.7141421120821	-389.0977129825908	904.5451598783035	432.831354834502	-336.6788076049498	763.9397281291589	374.0563335697623	-413.9286096201076	734.1296459889331	280.2768694611873	-348.2391860130424	634.9920240968331	248.0246372763539	-398.6971885076258	639.7145484289775	106.0137936876017	-336.8336409035516	612.2405814536789	105.3268594632947	-381.3940892391059	584.906545249272	311.0650538890587	-378.5578008563131	1092.476324418007	921.9507297253838	-106.0394575796542	1225.56401953435	764.2499281207797	-209.6543882325239	1181.581469254998	641.2858761656214	-140.419919046109	1209.334104127142	506.2766351003353	-169.3246922134814	1261.804973423354	455.7819834248991	-219.5642825363584	1222.421435694048	308.0566286425883	-155.1367397213047	1308.859731232587	234.0661804227125	-224.3000167722667	1301.584553647319	139.3637255524549	-198.0943280431735	1429.540536923985	163.1749263432447	-218.3296185236032	1425.46534908247	116.9550447519281	-180.8674201410388	1239.158043927913	72.1960245005407	-248.1894772629227	
2190	148.752	1080.507015242424	1465.598185760706	-300.5325078913355	1008.870281772898	1231.891515330856	-335.1881473950032	1185.608374934349	1359.405684602513	-248.5112708765019	1193.400043699326	1425.679810763466	-409.6314763793882	1090.6117406757	1418.068746767238	-137.6490950223285	1170.158678762354	957.8652472995094	-385.515794150762	1148.532288480007	990.8059951707064	-191.3019229183887	976.2121003844621	1045.976744160949	-332.096545449724	967.1090462422508	1042.951720491887	-288.3785856967358	1145.190943921603	1048.150685412159	-439.810307065814	1075.024859051332	1084.117156438575	-141.8856181456244	1068.300422145726	889.3214603249335	-474.9608038290086	1127.972992012676	694.7934820842671	-354.428771513318	993.0276821580234	628.3513379476904	-413.3831418430756	942.0236275033594	518.5175561852003	-388.4871848938728	907.1286810056954	430.0872445887142	-336.570576850158	765.7555856024659	374.5156173291008	-415.5018718665926	732.7371755080702	282.1277660687172	-349.5906677235014	633.0364353773743	251.8680350963203	-401.2573815467425	634.9629612528653	110.2220491389479	-338.1213293599344	607.5144197217853	109.6824649277627	-382.7428013687128	584.0950618845513	316.1480645040571	-381.770180257357	1092.563523328916	920.2950283136405	-106.3645514604866	1224.109179614657	760.7956398806954	-210.2681130350497	1181.706259667569	638.8082941391167	-140.5964791520208	1209.412485406106	504.6879715486125	-170.100362746137	1261.30588353754	454.2622395033147	-220.6202342944588	1222.075318124335	306.6139581786422	-156.0608342760442	1307.955357389	232.641015964826	-225.7123468932704	1300.625054273545	138.0037188653671	-199.5118098483537	1428.509451221634	161.537208632211	-220.1920212943287	1424.375378958029	115.1601176638372	-182.8477748759462	1237.910053449887	71.45316665229589	-249.5527057951203	
2191	148.756	1080.779034421337	1464.173876650255	-299.9001005565487	1008.772465589242	1230.704902067029	-334.6892663616643	1185.620060369808	1357.631062510304	-248.096975313182	1193.752469024808	1423.794828692172	-409.2950412297542	1090.807138798029	1416.165820666751	-137.0887751655717	1170.478336561145	957.2645012023306	-385.3907330401287	1148.727562677797	989.8054106938415	-191.3249840582129	976.5899856182864	1045.394540448046	-332.0294472866818	967.2346294762247	1042.28412847081	-288.4916651264103	1144.385733743097	1048.235915816755	-439.6722239320103	1075.44188437258	1083.294579432564	-141.3569659176378	1069.181986957302	888.7244770570572	-475.1693704182741	1130.817656657074	694.0221488742939	-353.8106656760002	997.1703562548105	625.0054196095364	-412.8026962118636	946.5905127943539	515.1446249966345	-388.0100679564409	909.9704152648028	427.1441485747192	-336.6874809533669	767.7872658179499	374.9423330117642	-417.1668462306415	731.6967386621477	283.9317413747631	-351.1230553009254	631.3178190868447	255.8141445462287	-403.7627067666327	630.6962671697214	114.4694224870545	-339.8639991667778	603.1568195743607	114.1800232340223	-384.4442245008785	583.5758490446163	321.1817777217591	-384.5681394446178	1092.585933066089	918.3809570828556	-106.6491512939708	1222.87188760593	757.5101003950725	-210.7972796601424	1181.990610166273	636.2887782458915	-140.9725968185701	1209.493629223619	502.9552747730544	-170.8813882381685	1260.717139187326	452.4746101601089	-221.6847156661472	1221.303348455515	304.9773667846351	-156.9985577992096	1306.433454006161	230.8362798850159	-227.1438273551401	1298.786748910105	136.3397419388133	-200.8942192034328	1426.644643590826	159.1554226618273	-221.9779542085458	1422.248266291878	112.7000942580345	-184.7195897769961	1235.58799862909	70.75860458081567	-250.9029640353915	
2192	148.76	1081.011747154385	1462.61594925208	-299.2524440904479	1008.641415002154	1229.345825012039	-334.1384887585832	1185.624825028281	1355.657468586482	-247.7496538148478	1194.047839826827	1421.737766829059	-409.0074695336518	1091.025064108678	1414.112583644551	-136.5171743829092	1170.756514749884	956.5663778966159	-385.3251589897586	1148.890170265734	988.6304684277635	-191.3145383416924	976.9423678473004	1044.578958766472	-331.9478088513296	967.3560265626514	1041.371241987611	-288.5736170220209	1143.398052863271	1048.161317702234	-439.5923511009381	1075.78507601404	1082.245584618701	-140.8512572377033	1070.068881046276	887.93206795375	-475.3479003256526	1133.705757456705	693.1142959755414	-353.2346345766548	1001.412732660435	621.4547402114257	-412.3238238790871	951.2935535450548	511.6316320234994	-387.6960502952355	913.0630518291252	424.0328298554592	-337.0541151853151	770.0269502181624	375.3626831629611	-418.9122603457938	731.0309959365079	285.6825585107758	-352.8391177170312	629.8707946011692	259.8627623283346	-406.1980281742638	626.9363046567078	118.7218386472281	-342.0765604394651	599.1929987710269	118.8083983553154	-386.5087279139442	583.3839099383113	326.1613718475978	-386.921913591402	1092.541249243759	916.2177554941397	-106.8867476731197	1221.893966387404	754.4339081791633	-211.2298954813322	1182.412319969662	633.7436977545046	-141.5448164667399	1209.552982326079	501.0710220230329	-171.662857832486	1260.042386387867	450.4216759899905	-222.7493026796395	1220.109427088484	303.1458834014767	-157.9554270309405	1304.329303041587	228.6662623216297	-228.5935415101995	1296.119252657699	134.3890206279564	-202.2415910795775	1423.991851142273	156.0644425758148	-223.6917504009204	1419.138783016514	109.6179145562686	-186.4801500884728	1232.251627311215	70.12001106712366	-252.2334943809892	
